<svg width="128" height="128" viewBox="0 0 128 128" xmlns="http://www.w3.org/2000/svg">
  <defs>
    <linearGradient id="grad1" x1="0%" y1="0%" x2="100%" y2="100%">
      <stop offset="0%" style="stop-color:#007ACC;stop-opacity:1" />
      <stop offset="100%" style="stop-color:#0099FF;stop-opacity:1" />
    </linearGradient>
  </defs>
  
  <!-- Background circle -->
  <circle cx="64" cy="64" r="60" fill="url(#grad1)" stroke="#005A9E" stroke-width="2"/>
  
  <!-- API symbol -->
  <g fill="white" stroke="white" stroke-width="1">
    <!-- Brackets -->
    <path d="M25 40 L20 45 L20 55 L25 60 M35 40 L30 45 L30 55 L35 60" stroke-width="3" fill="none"/>
    <path d="M93 40 L98 45 L98 55 L93 60 M103 40 L108 45 L108 55 L103 60" stroke-width="3" fill="none"/>
    
    <!-- Lightning bolt (representing speed) -->
    <path d="M50 30 L45 50 L55 50 L50 70 L70 45 L60 45 L65 30 Z" fill="#FFD700" stroke="#FFA500"/>
    
    <!-- Dots representing connection -->
    <circle cx="35" cy="80" r="3" fill="white"/>
    <circle cx="50" cy="85" r="3" fill="white"/>
    <circle cx="65" cy="85" r="3" fill="white"/>
    <circle cx="80" cy="80" r="3" fill="white"/>
    
    <!-- Connection lines -->
    <line x1="35" y1="80" x2="50" y2="85" stroke="white" stroke-width="2"/>
    <line x1="50" y1="85" x2="65" y2="85" stroke="white" stroke-width="2"/>
    <line x1="65" y1="85" x2="80" y2="80" stroke="white" stroke-width="2"/>
  </g>
  
  <!-- Text -->
  <text x="64" y="105" text-anchor="middle" fill="white" font-family="Arial, sans-serif" font-size="12" font-weight="bold">RapidAPI</text>
</svg>